<?xml version="1.0" encoding="UTF-8"?>
<svg id="Layer_1" data-name="Layer 1" xmlns="http://www.w3.org/2000/svg" viewBox="0 0 544.22 544.22">
  <path style="fill: #1ab4d7;" d="m393.37,236.98c-19.34,0-35.08,15.74-35.08,35.08s15.73,35.07,35.08,35.07,35.07-15.73,35.07-35.07-15.74-35.08-35.07-35.08Zm.01,47.18c-6.69,0-12.12-5.43-12.12-12.11s5.43-12.11,12.12-12.11,12.1,5.43,12.1,12.11-5.43,12.11-12.1,12.11Z"/>
  <path style="fill: #1ab4d7;" d="m272.11,0C2.1,0,0,121.83,0,272.11s2.1,272.11,272.11,272.11,272.11-121.83,272.11-272.11S542.12,0,272.11,0Zm-79.54,320.69c-1.81,0-3.51-.73-4.83-2.09l-37.13-37.09-37.27,37.22c-1.26,1.26-2.93,1.95-4.71,1.95-3.67,0-6.66-2.98-6.66-6.66,0-1.8.71-3.49,2.02-4.77l37.17-37.24-37.19-37.19c-1.28-1.27-2-2.95-2-4.74,0-3.67,2.99-6.66,6.66-6.66,1.77,0,3.44.69,4.71,1.93l37.33,37.2s37.16-37.14,37.17-37.15c1.27-1.28,2.95-1.98,4.74-1.98,3.68,0,6.67,2.99,6.67,6.67,0,1.76-.69,3.43-1.92,4.69l-37.2,37.29,37.18,37.27c1.25,1.26,1.94,2.92,1.94,4.7,0,3.68-2.99,6.67-6.66,6.67Zm89.47-43.31s-65.56.01-69.57.01c.01.32.05.67.09,1.03.35,1.93.84,3.8,1.49,5.6,3.69,9.66,14.06,23.19,33.45,23.41,5.92-.03,11.49-1.53,16.38-4.14,3.84-2.15,7.05-4.91,9.63-7.77.86-1.02,1.64-2.05,2.34-3.04,3.25-4.16,7.38-3.4,9.84-1.51,2.92,2.24,3.41,6.92.75,10.21-.08.09-.16.17-.23.26-3.82,4.8-7.77,8.8-12.5,11.84-4.55,2.92-9.5,4.99-14.61,6.23-5.95,1.54-11.69,1.88-17.59,1.17-19.88-2.43-36.55-17.11-41.48-36.51-.98-3.9-1.46-7.86-1.46-11.79,0-15.65,7.54-30.85,20.59-40.13,16.01-11.38,37.89-11.96,54.46-1.44,11.34,7.17,18.78,18.34,21.65,31.94,1.42,7.7-3.72,14.43-13.25,14.63Zm56.11-40.04c-14.45,1.81-15.99,8.62-15.99,25.49,0,0,0,50.6,0,50.61,0,3.67-3,6.65-6.66,6.65s-6.66-2.98-6.67-6.64c0,0-.02-82.3-.02-82.32,0-3.67,2.94-6.61,6.61-6.61,3.18,0,5.86,2.25,6.51,5.24,4.96-3.82,10.9-5.76,17.05-5.76h2.05c3.68,0,6.68,3,6.68,6.67s-2.81,6.39-6.76,6.53c0,0-1.46-.03-2.79.14Zm55.22,83.58c-26.95,0-48.87-21.92-48.87-48.87s21.92-48.88,48.87-48.88,48.88,21.93,48.88,48.88-21.94,48.87-48.88,48.87Z"/>
  <path style="fill: #1ab4d7;" d="m247.29,236.84c-16.5,0-30.35,11.32-34.22,26.62,0,.19-.02.38-.02.56h68.59c-3.67-15.58-17.65-27.18-34.35-27.18Z"/>
</svg>